<svg width="445pt" height="1996pt" viewBox="0 0 445.27 1996" xmlns="http://www.w3.org/2000/svg"><g class="graph"><path fill="#fff" stroke="transparent" d="M0 1996V0h445.27v1996H0z"/><g class="node" transform="translate(4 1992)"><ellipse fill="none" stroke="#000" cx="29.9" cy="-1074" rx="29.8" ry="18"/><text text-anchor="middle" x="29.9" y="-1070.3" font-family="Times,serif" font-size="14">Main</text></g><g class="node" transform="translate(4 1992)"><ellipse fill="none" stroke="#000" cx="165.99" cy="-1970" rx="55.79" ry="18"/><text text-anchor="middle" x="165.99" y="-1966.3" font-family="Times,serif" font-size="14">Acceleration</text></g><g class="edge" transform="translate(4 1992)"><path fill="none" stroke="#000" d="M31.11-1092.07C32.62-1210.4 43.4-1872.14 95.79-1943c3.78-5.1 8.66-9.24 14.08-12.6"/><path stroke="#000" d="M108.27-1958.71l10.48-1.55-7.23 7.75-3.25-6.2z"/></g><g class="node" transform="translate(4 1992)"><ellipse fill="none" stroke="#000" cx="165.99" cy="-1916" rx="32.49" ry="18"/><text text-anchor="middle" x="165.99" y="-1912.3" font-family="Times,serif" font-size="14">Angle</text></g><g class="edge" transform="translate(4 1992)"><path fill="none" stroke="#000" d="M31.2-1092.03c2.06-113.9 15.44-730.82 64.59-796.97 7.02-9.45 17.83-15.59 28.84-19.58"/><path stroke="#000" d="M123.67-1911.95l10.59.38-8.52 6.31-2.07-6.69z"/></g><g class="node" transform="translate(4 1992)"><ellipse fill="none" stroke="#000" cx="165.99" cy="-1862" rx="36.29" ry="18"/><text text-anchor="middle" x="165.99" y="-1858.3" font-family="Times,serif" font-size="14">Axis3d</text></g><g class="edge" transform="translate(4 1992)"><path fill="none" stroke="#000" d="M31.31-1092.24C33.96-1202.16 49.9-1773.6 95.79-1835c6.38-8.53 15.85-14.37 25.74-18.36"/><path stroke="#000" d="M120.47-1856.7l10.6.05-8.31 6.57-2.29-6.62z"/></g><g class="node" transform="translate(4 1992)"><ellipse fill="none" stroke="#000" cx="165.99" cy="-1808" rx="40.09" ry="18"/><text text-anchor="middle" x="165.99" y="-1804.3" font-family="Times,serif" font-size="14">Block3d</text></g><g class="edge" transform="translate(4 1992)"><path fill="none" stroke="#000" d="M31.44-1092.3c3.27-105.37 21.69-632.01 64.35-688.7 5.7-7.57 13.82-13.01 22.51-16.93"/><path stroke="#000" d="M117.27-1801.29l10.59-.33-8.07 6.86-2.52-6.53z"/></g><g class="node" transform="translate(4 1992)"><ellipse fill="none" stroke="#000" cx="165.99" cy="-1754" rx="40.09" ry="18"/><text text-anchor="middle" x="165.99" y="-1750.3" font-family="Times,serif" font-size="14">Browser</text></g><g class="edge" transform="translate(4 1992)"><path fill="none" stroke="#000" d="M31.58-1092.2c3.93-100.27 24.76-582.78 64.21-634.8 5.73-7.54 13.86-12.98 22.55-16.9"/><path stroke="#000" d="M117.31-1747.26l10.59-.33-8.07 6.87-2.52-6.54z"/></g><g class="node" transform="translate(4 1992)"><ellipse fill="none" stroke="#000" cx="165.99" cy="-1700" rx="60.39" ry="18"/><text text-anchor="middle" x="165.99" y="-1696.3" font-family="Times,serif" font-size="14">Browser.Dom</text></g><g class="edge" transform="translate(4 1992)"><path fill="none" stroke="#000" d="M31.76-1092.23c4.63-95.28 27.79-533.43 64.03-580.77 3.43-4.48 7.71-8.22 12.45-11.33"/><path stroke="#000" d="M106.73-1687.5l10.45-1.8-7.04 7.92-3.41-6.12z"/></g><g class="node" transform="translate(4 1992)"><ellipse fill="none" stroke="#000" cx="165.99" cy="-1646" rx="66.09" ry="18"/><text text-anchor="middle" x="165.99" y="-1642.3" font-family="Times,serif" font-size="14">Browser.Events</text></g><g class="edge" transform="translate(4 1992)"><path fill="none" stroke="#000" d="M30.64-1092.03c-.87-84.65-.53-442.1 65.15-526.97 3-3.88 6.64-7.19 10.65-10.04"/><path stroke="#000" d="M104.75-1632.11l10.38-2.12-6.79 8.13-3.59-6.01z"/></g><g class="node" transform="translate(4 1992)"><ellipse fill="none" stroke="#000" cx="165.99" cy="-1592" rx="47.39" ry="18"/><text text-anchor="middle" x="165.99" y="-1588.3" font-family="Times,serif" font-size="14">Camera3d</text></g><g class="edge" transform="translate(4 1992)"><path fill="none" stroke="#000" d="M31.04-1092.07c.98-78.75 8.38-391.44 64.75-467.93 5.48-7.43 13.11-13.19 21.32-17.64"/><path stroke="#000" d="M115.63-1580.81l10.53-1.15-7.51 7.47-3.02-6.32z"/></g><g class="node" transform="translate(4 1992)"><ellipse fill="none" stroke="#000" cx="354.72" cy="-1615" rx="30.59" ry="18"/><text text-anchor="middle" x="354.72" y="-1611.3" font-family="Times,serif" font-size="14">Color</text></g><g class="edge" transform="translate(4 1992)"><path fill="none" stroke="#000" d="M31.17-1092.21c1.47-74.53 10.56-355.53 64.62-421.79 41.97-51.43 80.86-21.62 140.39-51 17.03-8.4 18.86-14.84 36-23 14.09-6.7 30.28-12.44 44.5-16.87"/><path stroke="#000" d="M316.05-1608.34l10.58.47-8.56 6.24-2.02-6.71z"/></g><g class="node" transform="translate(4 1992)"><ellipse fill="none" stroke="#000" cx="354.72" cy="-1561" rx="50.09" ry="18"/><text text-anchor="middle" x="354.72" y="-1557.3" font-family="Times,serif" font-size="14">Cylinder3d</text></g><g class="edge" transform="translate(4 1992)"><path fill="none" stroke="#000" d="M31.41-1092.05c2.33-70.17 14.16-323.83 64.38-382.95 13.86-16.31 137.5-52.66 208.44-72.48"/><path stroke="#000" d="M303.73-1550.97l10.57.69-8.7 6.05-1.87-6.74z"/></g><g class="node" transform="translate(4 1992)"><ellipse fill="none" stroke="#000" cx="165.99" cy="-990" rx="27" ry="18"/><text text-anchor="middle" x="165.99" y="-986.3" font-family="Times,serif" font-size="14">Dict</text></g><g class="edge" transform="translate(4 1992)"><path fill="none" stroke="#000" d="M47.14-1059.13c12.65 11.1 30.98 26.19 48.65 37.13 11.64 7.2 25.16 13.8 37.14 19.12"/><path stroke="#000" d="M134.35-1006.08l7.8 7.17-10.57-.74 2.77-6.43z"/></g><g class="node" transform="translate(4 1992)"><ellipse fill="none" stroke="#000" cx="354.72" cy="-1507" rx="52.79" ry="18"/><text text-anchor="middle" x="354.72" y="-1503.3" font-family="Times,serif" font-size="14">Direction3d</text></g><g class="edge" transform="translate(4 1992)"><path fill="none" stroke="#000" d="M31.66-1092.16c3.15-66.07 17.22-292.44 64.13-343.84 26.73-29.29 132.54-51.09 200.05-62.36"/><path stroke="#000" d="M295.49-1501.85l10.43 1.83-9.3 5.08-1.13-6.91z"/></g><g class="node" transform="translate(4 1992)"><ellipse fill="none" stroke="#000" cx="165.99" cy="-936" rx="42.49" ry="18"/><text text-anchor="middle" x="165.99" y="-932.3" font-family="Times,serif" font-size="14">Duration</text></g><g class="edge" transform="translate(4 1992)"><path fill="none" stroke="#000" d="M37.04-1056.14c9.19 24.24 28.71 67.48 58.75 93.14 6.92 5.9 15.26 10.6 23.74 14.31"/><path stroke="#000" d="M121.07-951.84l8.01 6.93-10.59-.42 2.58-6.51z"/></g><g class="node" transform="translate(4 1992)"><ellipse fill="none" stroke="#000" cx="165.99" cy="-882" rx="30.59" ry="18"/><text text-anchor="middle" x="165.99" y="-878.3" font-family="Times,serif" font-size="14">Force</text></g><g class="edge" transform="translate(4 1992)"><path fill="none" stroke="#000" d="M33.19-1056.04c5.18 33.36 20.76 105.31 62.6 147.04 8.55 8.52 20.09 14.42 31.3 18.48"/><path stroke="#000" d="M128.32-893.8l8.45 6.39-10.59.27 2.14-6.66z"/></g><g class="node" transform="translate(4 1992)"><ellipse fill="none" stroke="#000" cx="165.99" cy="-828" rx="42.49" ry="18"/><text text-anchor="middle" x="165.99" y="-824.3" font-family="Times,serif" font-size="14">Frame3d</text></g><g class="edge" transform="translate(4 1992)"><path fill="none" stroke="#000" d="M31.14-1055.84c1.51 41.13 10.84 142.31 64.65 200.84 6.09 6.62 14 11.64 22.28 15.43"/><path stroke="#000" d="M119.53-842.75l7.98 6.97-10.59-.48 2.61-6.49z"/></g><g class="node" transform="translate(4 1992)"><ellipse fill="none" stroke="#000" cx="165.99" cy="-774" rx="29.5" ry="18"/><text text-anchor="middle" x="165.99" y="-770.3" font-family="Times,serif" font-size="14">Html</text></g><g class="edge" transform="translate(4 1992)"><path fill="none" stroke="#000" d="M32.99-1056.03c6.65 54.42 28.91 216.07 62.8 255.03 8.27 9.5 20.3 15.68 32.02 19.69"/><path stroke="#000" d="M128.9-784.63l8.59 6.21-10.59.5 2-6.71z"/></g><g class="node" transform="translate(4 1992)"><ellipse fill="none" stroke="#000" cx="165.99" cy="-720" rx="66.89" ry="18"/><text text-anchor="middle" x="165.99" y="-716.3" font-family="Times,serif" font-size="14">Html.Attributes</text></g><g class="edge" transform="translate(4 1992)"><path fill="none" stroke="#000" d="M32.22-1056.05C37.05-994.77 55.65-794.92 95.79-747c3.15 3.76 6.89 6.99 10.97 9.78"/><path stroke="#000" d="M108.67-740.16l6.88 8.05-10.4-2 3.52-6.05z"/></g><g class="node" transform="translate(4 1992)"><ellipse fill="none" stroke="#000" cx="165.99" cy="-666" rx="55.79" ry="18"/><text text-anchor="middle" x="165.99" y="-662.3" font-family="Times,serif" font-size="14">Html.Events</text></g><g class="edge" transform="translate(4 1992)"><path fill="none" stroke="#000" d="M31.66-1055.99c3.22 67.7 17.72 306.03 64.13 362.99 4.01 4.92 9.04 8.95 14.54 12.24"/><path stroke="#000" d="M111.99-683.84l7.3 7.68-10.49-1.45 3.19-6.23z"/></g><g class="node" transform="translate(4 1992)"><ellipse fill="none" stroke="#000" cx="165.99" cy="-612" rx="53.09" ry="18"/><text text-anchor="middle" x="165.99" y="-608.3" font-family="Times,serif" font-size="14">Illuminance</text></g><g class="edge" transform="translate(4 1992)"><path fill="none" stroke="#000" d="M31.25-1055.78C33.02-981.85 43.11-705.03 95.79-639c4.27 5.35 9.75 9.64 15.74 13.09"/><path stroke="#000" d="M113.18-629.01l7.43 7.56-10.52-1.27 3.09-6.29z"/></g><g class="node" transform="translate(4 1992)"><ellipse fill="none" stroke="#000" cx="165.99" cy="-558" rx="55.79" ry="18"/><text text-anchor="middle" x="165.99" y="-554.3" font-family="Times,serif" font-size="14">Json.Decode</text></g><g class="edge" transform="translate(4 1992)"><path fill="none" stroke="#000" d="M30.91-1056c.42 79.16 5.8 395.71 64.88 471 3.92 4.99 8.89 9.06 14.36 12.38"/><path stroke="#000" d="M111.81-575.7l7.28 7.7-10.49-1.48 3.21-6.22z"/></g><g class="node" transform="translate(4 1992)"><ellipse fill="none" stroke="#000" cx="354.72" cy="-1453" rx="36" ry="18"/><text text-anchor="middle" x="354.72" y="-1449.3" font-family="Times,serif" font-size="14">Length</text></g><g class="edge" transform="translate(4 1992)"><path fill="none" stroke="#000" d="M32.08-1092.09c4.36-60.78 21.45-256.32 63.71-299.91 55.94-57.69 155.59-65.06 213.28-63.91"/><path stroke="#000" d="M309.44-1459.41l9.89 3.8-10.1 3.2.21-7z"/></g><g class="node" transform="translate(4 1992)"><ellipse fill="none" stroke="#000" cx="354.72" cy="-1399" rx="50.89" ry="18"/><text text-anchor="middle" x="354.72" y="-1395.3" font-family="Times,serif" font-size="14">Luminance</text></g><g class="edge" transform="translate(4 1992)"><path fill="none" stroke="#000" d="M32.56-1092.28c5.49-56.12 24.91-224.34 63.23-260.72 53.46-50.74 142.56-55.68 200.79-52.47"/><path stroke="#000" d="M296.96-1408.95l9.75 4.14-10.2 2.85.45-6.99z"/></g><g class="node" transform="translate(4 1992)"><ellipse fill="none" stroke="#000" cx="165.99" cy="-504" rx="29.8" ry="18"/><text text-anchor="middle" x="165.99" y="-500.3" font-family="Times,serif" font-size="14">Mass</text></g><g class="edge" transform="translate(4 1992)"><path fill="none" stroke="#000" d="M30.65-1055.76c-.82 84.85-.25 440.31 65.14 524.76 7.65 9.88 19.42 16.15 31.1 20.12"/><path stroke="#000" d="M127.96-514.21l8.62 6.16-10.58.56 1.96-6.72z"/></g><g class="node" transform="translate(4 1992)"><ellipse fill="none" stroke="#000" cx="354.72" cy="-1345" rx="44.39" ry="18"/><text text-anchor="middle" x="354.72" y="-1341.3" font-family="Times,serif" font-size="14">Materials</text></g><g class="edge" transform="translate(4 1992)"><path fill="none" stroke="#000" d="M33.03-1091.98c6.46-51.38 27.61-197.04 62.76-227.02 58.03-49.49 152.25-44.85 209.32-36.06"/><path stroke="#000" d="M306.02-1358.46l9.3 5.07-10.43 1.84 1.13-6.91z"/></g><g class="node" transform="translate(4 1992)"><ellipse fill="none" stroke="#000" cx="165.99" cy="-450" rx="59.29" ry="18"/><text text-anchor="middle" x="165.99" y="-446.3" font-family="Times,serif" font-size="14">Physics.Body</text></g><g class="edge" transform="translate(4 1992)"><path fill="none" stroke="#000" d="M31.76-1055.83c4.65 94.96 27.9 531.65 64.03 578.83 3.48 4.54 7.84 8.32 12.65 11.47"/><path stroke="#000" d="M110.46-468.42l7.07 7.89-10.45-1.76 3.38-6.13z"/></g><g class="node" transform="translate(4 1992)"><ellipse fill="none" stroke="#000" cx="354.72" cy="-1291" rx="82.59" ry="18"/><text text-anchor="middle" x="354.72" y="-1287.3" font-family="Times,serif" font-size="14">Physics.Coordinates</text></g><g class="edge" transform="translate(4 1992)"><path fill="none" stroke="#000" d="M33.32-1092.08c6.96-48.85 28.69-181.5 62.47-206.92 27.89-20.98 117.32-13.47 183.08-4.37"/><path stroke="#000" d="M279.39-1306.83l9.41 4.87-10.39 2.06.98-6.93z"/></g><g class="node" transform="translate(4 1992)"><ellipse fill="none" stroke="#000" cx="165.99" cy="-396" rx="70.39" ry="18"/><text text-anchor="middle" x="165.99" y="-392.3" font-family="Times,serif" font-size="14">Physics.Material</text></g><g class="edge" transform="translate(4 1992)"><path fill="none" stroke="#000" d="M31.59-1055.86c3.94 99.96 24.86 581 64.2 632.86 2.75 3.62 6.06 6.76 9.71 9.48"/><path stroke="#000" d="M107.36-416.49l6.62 8.27-10.33-2.34 3.71-5.93z"/></g><g class="node" transform="translate(4 1992)"><ellipse fill="none" stroke="#000" cx="165.99" cy="-342" rx="62.29" ry="18"/><text text-anchor="middle" x="165.99" y="-338.3" font-family="Times,serif" font-size="14">Physics.World</text></g><g class="edge" transform="translate(4 1992)"><path fill="none" stroke="#000" d="M31.44-1055.75c3.3 105.07 21.8 630.22 64.35 686.75 3.22 4.27 7.2 7.86 11.63 10.89"/><path stroke="#000" d="M109.45-360.98l6.93 8.02-10.41-1.95 3.48-6.07z"/></g><g class="node" transform="translate(4 1992)"><ellipse fill="none" stroke="#000" cx="165.99" cy="-288" rx="32.49" ry="18"/><text text-anchor="middle" x="165.99" y="-284.3" font-family="Times,serif" font-size="14">Pixels</text></g><g class="edge" transform="translate(4 1992)"><path fill="none" stroke="#000" d="M31.32-1055.81C33.99-946.17 50.01-376.23 95.79-315c7.05 9.43 17.87 15.56 28.87 19.56"/><path stroke="#000" d="M125.78-298.76l8.51 6.3-10.59.38 2.08-6.68z"/></g><g class="node" transform="translate(4 1992)"><ellipse fill="none" stroke="#000" cx="354.72" cy="-1237" rx="38.19" ry="18"/><text text-anchor="middle" x="354.72" y="-1233.3" font-family="Times,serif" font-size="14">Point3d</text></g><g class="edge" transform="translate(4 1992)"><path fill="none" stroke="#000" d="M39.42-1091.36c10.56-19.74 30.39-51.55 56.37-69.64 64.61-44.98 156.02-63.68 210.89-71.2"/><path stroke="#000" d="M306.45-1235.7l10.37 2.18-9.47 4.76-.9-6.94z"/></g><g class="node" transform="translate(4 1992)"><ellipse fill="none" stroke="#000" cx="165.99" cy="-234" rx="41.69" ry="18"/><text text-anchor="middle" x="165.99" y="-230.3" font-family="Times,serif" font-size="14">Quantity</text></g><g class="edge" transform="translate(4 1992)"><path fill="none" stroke="#000" d="M31.2-1056.01C33.28-942.39 46.75-326.98 95.79-261c5.54 7.45 13.43 12.84 21.92 16.75"/><path stroke="#000" d="M119.04-247.49l8.03 6.92-10.59-.4 2.56-6.52z"/></g><g class="node" transform="translate(4 1992)"><ellipse fill="none" stroke="#000" cx="165.99" cy="-1272" rx="30.59" ry="18"/><text text-anchor="middle" x="165.99" y="-1268.3" font-family="Times,serif" font-size="14">Refill</text></g><g class="edge" transform="translate(4 1992)"><path fill="none" stroke="#000" d="M33.45-1092.09c5.56-33.28 21.73-104.76 62.34-147.91 8.79-9.34 20.84-16.19 32.42-21.1"/><path stroke="#000" d="M127.15-1264.45l10.59-.33-8.07 6.86-2.52-6.53z"/></g><g class="node" transform="translate(4 1992)"><ellipse fill="none" stroke="#000" cx="354.72" cy="-1183" rx="40.09" ry="18"/><text text-anchor="middle" x="354.72" y="-1179.3" font-family="Times,serif" font-size="14">Scene3d</text></g><g class="edge" transform="translate(4 1992)"><path fill="none" stroke="#000" d="M45.7-1089.59c12.29-12.03 30.83-28.12 50.09-37.41 67.91-32.75 155.07-46.53 208.69-52.2"/><path stroke="#000" d="M304.44-1182.72l10.3 2.49-9.6 4.48-.7-6.97z"/></g><g class="node" transform="translate(4 1992)"><ellipse fill="none" stroke="#000" cx="354.72" cy="-1129" rx="61.99" ry="18"/><text text-anchor="middle" x="354.72" y="-1125.3" font-family="Times,serif" font-size="14">Scene3d.Light</text></g><g class="edge" transform="translate(4 1992)"><path fill="none" stroke="#000" d="M52.78-1085.89c12.29-6.13 28.11-13.14 43.01-17.11 61.77-16.46 134.4-22.65 186.82-24.91"/><path stroke="#000" d="M282.68-1131.42l10.13 3.11-9.85 3.89-.28-7z"/></g><g class="node" transform="translate(4 1992)"><ellipse fill="none" stroke="#000" cx="354.72" cy="-1075" rx="73.39" ry="18"/><text text-anchor="middle" x="354.72" y="-1071.3" font-family="Times,serif" font-size="14">Scene3d.Material</text></g><g class="edge" transform="translate(4 1992)"><path fill="none" stroke="#000" d="M57.53-1081.08c11.65-2.75 25.54-5.56 38.26-6.92 61.97-6.61 132.68-2.21 184.37 3.19"/><path stroke="#000" d="M280.67-1088.27l9.57 4.55-10.32 2.41.75-6.96z"/></g><g class="node" transform="translate(4 1992)"><ellipse fill="none" stroke="#000" cx="165.99" cy="-180" rx="63.09" ry="18"/><text text-anchor="middle" x="165.99" y="-176.3" font-family="Times,serif" font-size="14">SketchPlane3d</text></g><g class="edge" transform="translate(4 1992)"><path fill="none" stroke="#000" d="M31.11-1055.97C32.64-937.91 43.52-277.69 95.79-207c3.13 4.23 7.03 7.8 11.36 10.81"/><path stroke="#000" d="M109.06-199.12l6.87 8.06-10.4-2.02 3.53-6.04z"/></g><g class="node" transform="translate(4 1992)"><ellipse fill="none" stroke="#000" cx="354.72" cy="-1021" rx="44.39" ry="18"/><text text-anchor="middle" x="354.72" y="-1017.3" font-family="Times,serif" font-size="14">Sphere3d</text></g><g class="edge" transform="translate(4 1992)"><path fill="none" stroke="#000" d="M59.63-1071.79c39.85 3.33 114.06 10.47 176.55 21.79 23.93 4.33 50.23 10.67 71.88 16.32"/><path stroke="#000" d="M309.19-1037l8.78 5.94-10.57.82 1.79-6.76z"/></g><g class="node" transform="translate(4 1992)"><ellipse fill="none" stroke="#000" cx="165.99" cy="-126" rx="27.9" ry="18"/><text text-anchor="middle" x="165.99" y="-122.3" font-family="Times,serif" font-size="14">Task</text></g><g class="edge" transform="translate(4 1992)"><path fill="none" stroke="#000" d="M31.03-1055.65C32.05-932.47 40.32-228.36 95.79-153c7.85 10.65 20.51 17.1 32.88 21.01"/><path stroke="#000" d="M129.67-135.35l8.75 5.98-10.56.79 1.81-6.77z"/></g><g class="node" transform="translate(4 1992)"><ellipse fill="none" stroke="#000" cx="354.72" cy="-967" rx="42.49" ry="18"/><text text-anchor="middle" x="354.72" y="-963.3" font-family="Times,serif" font-size="14">Vector3d</text></g><g class="edge" transform="translate(4 1992)"><path fill="none" stroke="#000" d="M55.31-1064.16c12.06 4.65 26.91 10.07 40.48 14.16 61.38 18.48 81.35 8.06 140.39 33 17.49 7.39 18.86 14.84 36 23 11.58 5.51 24.59 10.37 36.75 14.39"/><path stroke="#000" d="M310-982.95l8.46 6.37-10.59.3 2.13-6.67z"/></g><g class="node" transform="translate(4 1992)"><ellipse fill="none" stroke="#000" cx="165.99" cy="-72" rx="56.59" ry="18"/><text text-anchor="middle" x="165.99" y="-68.3" font-family="Times,serif" font-size="14">Viewpoint3d</text></g><g class="edge" transform="translate(4 1992)"><path fill="none" stroke="#000" d="M30.95-1055.82c.53 126.84 6.1 876.7 64.84 956.82 3.62 4.93 8.27 8.96 13.44 12.25"/><path stroke="#000" d="M111.19-89.67l7.16 7.8-10.47-1.63 3.31-6.17z"/></g><g class="node" transform="translate(4 1992)"><ellipse fill="none" stroke="#000" cx="165.99" cy="-18" rx="68.79" ry="18"/><text text-anchor="middle" x="165.99" y="-14.3" font-family="Times,serif" font-size="14">WebGL.Texture</text></g><g class="edge" transform="translate(4 1992)"><path fill="none" stroke="#000" d="M30.88-1055.66C30.94-924.34 33.83-129.83 95.79-45c2.73 3.73 6.05 6.95 9.74 9.72"/><path stroke="#000" d="M107.51-38.17l6.62 8.28-10.33-2.35 3.71-5.93z"/></g><g class="edge" transform="translate(4 1992)"><path fill="none" stroke="#000" d="M170.74-1289.92c12.95-60.23 57.35-254.06 101.44-298.08 11.23-11.21 27.22-17.77 42.07-21.6"/><path stroke="#000" d="M313.75-1613.08l10.52 1.23-8.99 5.6-1.53-6.83z"/></g><g class="edge" transform="translate(4 1992)"><path fill="none" stroke="#000" d="M169.04-1290.17c6.29-47.17 29.56-174.68 103.14-243.83 7.66-7.2 17.28-12.48 27.21-16.35"/><path stroke="#000" d="M298.34-1553.7l10.6.05-8.31 6.57-2.29-6.62z"/></g><g class="edge" transform="translate(4 1992)"><path fill="none" stroke="#000" d="M171.09-1289.92c10.06-40.02 39.78-137.25 101.09-190.08 7.54-6.5 16.7-11.44 26.11-15.2"/><path stroke="#000" d="M297.14-1498.51l10.59-.07-8.23 6.66-2.36-6.59z"/></g><g class="edge" transform="translate(4 1992)"><path fill="none" stroke="#000" d="M174.34-1289.55c14.2-31.83 48.45-99.24 97.84-136.45 11.3-8.51 25.41-14.42 38.71-18.49"/><path stroke="#000" d="M310.27-1447.95l10.57.7-8.7 6.05-1.87-6.75z"/></g><g class="edge" transform="translate(4 1992)"><path fill="none" stroke="#000" d="M179.93-1288.14c18.35-21.91 54-60.93 92.25-83.86 9.21-5.52 19.69-10.07 29.99-13.76"/><path stroke="#000" d="M301.36-1389.18l10.59.14-8.36 6.5-2.23-6.64z"/></g><g class="edge" transform="translate(4 1992)"><path fill="none" stroke="#000" d="M190.54-1283.05c21.15-9.74 53.17-24.04 81.64-34.95 11.86-4.54 24.85-9.05 36.91-13.05"/><path stroke="#000" d="M308.36-1334.49l10.6.22-8.42 6.43-2.18-6.65z"/></g><g class="edge" transform="translate(4 1992)"><path fill="none" stroke="#000" d="M196.17-1274.97c19.82-2.02 47.14-4.8 73.46-7.47"/><path stroke="#000" d="M269.35-1285.93l10.3 2.47-9.59 4.49-.71-6.96z"/></g><g class="edge" transform="translate(4 1992)"><path fill="none" stroke="#000" d="M195.35-1266.68l113.32 21.24"/><path stroke="#000" d="M309.53-1248.84l9.19 5.28-10.48 1.6 1.29-6.88z"/></g><g class="edge" transform="translate(4 1992)"><path fill="none" stroke="#000" d="M186.86-1258.55c20.65 13.56 54.24 34.44 85.32 48.55 12.11 5.5 25.68 10.44 38.21 14.55"/><path stroke="#000" d="M311.71-1198.71l8.47 6.37-10.59.31 2.12-6.68z"/></g><g class="edge" transform="translate(4 1992)"><path fill="none" stroke="#000" d="M177.88-1255.29c17.16 25.06 52.83 72.3 94.3 99.29 7.45 4.85 15.85 8.9 24.35 12.27"/><path stroke="#000" d="M297.94-1146.94l8.19 6.72-10.6-.15 2.41-6.57z"/></g><g class="edge" transform="translate(4 1992)"><path fill="none" stroke="#000" d="M173.21-1254.26c12.96 34.43 46.12 110.54 98.97 152.26 5.43 4.28 11.56 7.9 17.97 10.95"/><path stroke="#000" d="M291.87-1094.12l7.82 7.15-10.57-.71 2.75-6.44z"/></g><g class="edge" transform="translate(4 1992)"><path fill="none" stroke="#000" d="M170.39-1253.99c8.91 42.22 36.88 148.39 101.79 205.99 8.89 7.88 20.14 13.48 31.43 17.44"/><path stroke="#000" d="M304.97-1033.8l8.5 6.32-10.59.36 2.09-6.68z"/></g><g class="edge" transform="translate(4 1992)"><path fill="none" stroke="#000" d="M171.64-1253.93c14.61 55.48 60.97 221.98 100.54 259.93 8.92 8.55 20.6 14.39 32.32 18.38"/><path stroke="#000" d="M305.72-978.9l8.58 6.22-10.59.48 2.01-6.7z"/></g></g></svg>
